PathFileType	4	(X/Y/Z)	Patient4_TMGait_0pt3_02_left_24.trc.trc
DataRate	CameraRate	NumFrames	NumMarkers	Units	OrigDataRate	OrigDataStartFrame	OrigNumFrames
50.359712230216	50.359712230216	6	33	mm	50.359712230216	53	       141
Frame#	Time	Sacral			L.Shoulder			Chest			R.Shoulder			Neck			R.ASIS			L.ASIS			R.Thigh.Superior			R.Thigh.Lateral			R.Thigh.Inferior			R.Patella			L.Thigh.Superior			L.Thigh.Lateral			L.Thigh.Inferior			L.Patella			L.Shank.Superior			L.Shank.Lateral			L.Shank.Inferior			R.Shank.Superior			R.Shank.Lateral			R.Shank.Inferior			R.Heel			R.Midfoot.Superior			R.Midfoot.Lateral			R.Toe			L.Heel			L.Midfoot.Lateral			L.Midfoot.Superior			L.Toe			L.Elbow			L.Wrist			R.Elbow			R.Wrist			
		X1	Y1	Z1	X2	Y2	Z2	X3	Y3	Z3	X4	Y4	Z4	X5	Y5	Z5	X6	Y6	Z6	X7	Y7	Z7	X8	Y8	Z8	X9	Y9	Z9	X10	Y10	Z10	X11	Y11	Z11	X12	Y12	Z12	X13	Y13	Z13	X14	Y14	Z14	X15	Y15	Z15	X16	Y16	Z16	X17	Y17	Z17	X18	Y18	Z18	X19	Y19	Z19	X20	Y20	Z20	X21	Y21	Z21	X22	Y22	Z22	X23	Y23	Z23	X24	Y24	Z24	X25	Y25	Z25	X26	Y26	Z26	X27	Y27	Z27	X28	Y28	Z28	X29	Y29	Z29	X30	Y30	Z30	X31	Y31	Z31	X32	Y32	Z32	X33	Y33	Z33	

53	48.062571428571	759.316795615570	994.601683521094	432.576041404952	913.418320374665	1417.439367011064	222.949484270015	1029.421471025295	1357.376061177002	377.994018226430	962.642549417931	1438.495599940874	554.738355974027	912.095405107985	1488.363409368508	377.038119428413	995.879943787068	935.675874223009	534.096596576051	966.574664216733	954.163394615961	261.532377154007	1056.736919812265	744.018261058361	508.204992218973	998.376861078781	628.824272569039	581.897247537460	1079.780540327700	577.730039251444	500.597710550614	1081.327315873083	465.118541056033	525.890576507116	1034.227735574550	752.517251094528	301.625298272217	958.735565463750	624.717373021661	249.788155010525	1049.524128220332	557.847175377855	316.748315417830	1055.073164497175	485.698039383297	328.221743034210	1023.137679203912	410.442475612433	324.716851345811	929.093726601485	298.789862089284	275.067846920768	970.004144751360	188.804491985707	353.071264127551	998.694340092688	399.595511633010	536.901901913148	874.394268079915	372.059773600849	598.172633572058	852.668863476599	261.885488391410	554.297012409379	647.034109469999	218.081104900735	523.979386652238	808.628808310928	145.718159219156	578.313489867989	698.358593383111	162.018584285554	605.799951214404	859.112710034412	33.255719800727	617.909427080239	832.731523069685	38.349031549909	396.093794050106	908.318408505844	35.364991953063	316.611267503745	991.176231109656	96.112098320059	345.731969863807	1119.619276642370	46.406072405472	319.684393509378	939.346865699694	1062.533763846227	111.307129047502	1033.575492365616	820.383381902378	127.630654721370	1042.114207384417	1097.541279151003	677.875742427244	1265.873904607923	972.298695067531	654.660368652997	
54	48.082428571429	758.275148714401	992.038215260173	428.365947273672	915.102669288205	1416.707052801745	222.120341828872	1028.589072780624	1355.930795700464	378.717521549444	958.782349994506	1435.396781201897	555.047928236293	911.354298434409	1486.767977644948	376.820634375117	994.410368685570	934.473921725549	532.143421863534	967.483776528657	952.568830749362	259.307247069326	1059.672244036241	745.443970856095	505.409698133361	1004.333226819684	629.392102008101	579.386296584818	1086.563620556294	579.828744051190	497.596362768327	1090.464319570024	466.821320420526	523.052560813560	1035.710915219981	751.044409897151	299.751141506051	960.916331377053	622.736729398418	248.306971867231	1051.782489067411	556.291118559941	315.922217193256	1057.548112256804	483.717909557645	327.612906702769	1024.038528041589	408.198650161175	324.491342879337	928.282945653202	298.043811540289	274.714561320675	966.407914169215	187.553276107500	353.093277673647	1007.857562439015	400.663223663009	534.667783554107	883.391997705312	373.476996033597	596.148848879824	861.676344893166	263.020561556642	552.885864685005	655.896969427761	218.581083555161	523.034979071243	817.985582524674	147.123802438720	576.974147522324	707.652741447015	162.697920555752	604.743253645885	869.315794114574	33.467356535996	616.647395215443	826.845626144825	38.477612704291	396.043732227989	902.462874185177	35.428946663299	316.612258969894	985.526572526729	95.892111499287	345.885408122530	1113.887008472387	45.748244545693	319.659506247356	952.328970433867	1063.688350484077	107.892510905070	1058.238423219593	826.401430611507	124.639324352430	1024.584420689880	1090.683798407078	678.088865487075	1236.504639451086	945.590451016850	659.826581028636	
55	48.102285714286	757.221806969310	989.632522035095	424.288691931411	917.002826063009	1415.971312262948	221.510962762076	1027.821981177298	1354.499670298831	379.716229267328	954.847634950874	1432.341900348542	555.494816281461	910.712016435913	1485.228853620931	376.753022396741	992.899434832091	933.384986803775	530.578952902181	968.511098594148	950.998566539161	257.426521224216	1062.112323793486	746.845568981391	502.917455975886	1009.675137951788	630.095624918401	577.160545005839	1092.436805561280	581.970047128658	494.760450578789	1098.809843141571	468.823769850130	520.353634174519	1037.081917017661	749.498764421023	298.273834671554	962.892643156143	620.767437475540	247.105015942265	1053.689616531573	554.682138107182	315.499029778442	1059.595970827257	481.734631142845	327.428244468988	1024.610645050311	405.991496207059	324.567104892081	927.292346592929	297.290012253512	274.566795699866	962.698814133401	186.327056369882	353.249033820996	1016.717826560889	401.724127980481	532.678529085216	892.520079393451	373.806291289051	594.581467916825	871.610259291722	262.977795404972	551.805740569007	666.025759759333	215.781191837801	522.945436180517	829.395600577044	147.230914424592	575.927901861666	719.057176414396	160.704141919579	604.321819108725	882.990970415029	33.580424607432	615.338771291313	820.948452798558	38.593828498012	395.997464018362	896.605130472427	35.493998915141	316.617413612708	979.854609687007	95.686157427128	346.060484233076	1108.141462647159	45.124430504199	319.639159643621	964.979105929278	1065.174853460630	104.914542123767	1082.604320194721	833.424036966107	122.366441451236	1006.723717817745	1084.491337296430	678.195292931632	1204.681233569643	920.267965286730	664.903178888390	
56	48.122142857143	756.186952528516	987.543651953302	420.348643409471	919.144419323706	1415.364026551958	221.130347535480	1027.142838887310	1353.217006175084	380.990737569311	950.874158701872	1429.509166475074	556.058656628630	910.196330518412	1483.882166712029	376.826908507078	991.326896295487	932.526185086050	529.433531867223	969.674110194654	949.586302662226	255.928860272140	1064.029750447490	748.303162865590	500.785516101300	1014.338303573969	631.005190325380	575.274646679571	1097.364361070177	584.196418619682	492.179740613334	1106.306113315154	471.191661178111	517.904204138110	1038.230970289087	747.938639438615	297.224984203302	964.478090788945	618.916835486247	246.189000427331	1054.999715441153	553.072890293402	315.465923942274	1060.928586654837	479.819326894186	327.649713418542	1024.618702522953	403.916220533306	324.913797950155	925.948965598808	296.563117596092	274.595898641713	958.795402821801	185.178779206111	353.520040048289	1025.244463171954	402.848424843071	531.004845215115	901.763094286626	373.097245101015	593.491603241497	882.535625409178	261.822192681317	551.083408149745	677.621591267019	209.798243426428	523.605117928655	842.926529777391	146.087166329991	575.220302887893	732.663658818042	156.184387503538	604.494782087348	900.068437700611	33.624674052394	614.109246868818	815.034630427106	38.693820304307	395.954349747158	890.739416968148	35.556778552785	316.624793637282	974.150323280235	95.496789245885	346.249414388037	1102.374519315846	44.548947666768	319.627961595737	977.243578837645	1067.066077570719	102.369833731852	1106.494285237076	841.508887995126	120.784224360421	988.611692600748	1079.171411877274	678.178294699989	1170.695379654443	896.974052533280	669.766793178372	
57	48.142000000000	755.206460646186	985.918632076013	416.557969601103	921.549581289790	1415.019185928647	220.993916610719	1026.573754941586	1352.211816569094	382.544274829549	946.904107434343	1427.068879255847	556.727000815038	909.833545877035	1482.857529055069	377.044294223530	989.668865847504	932.001928693509	528.721423565295	970.977463107417	948.463000697036	254.844143545849	1065.406934943995	749.896955274158	499.068676405475	1018.251310319341	632.181483615756	573.776388163661	1101.332142906753	586.549663032495	489.962185866983	1112.902706828262	473.983406238833	515.820703534141	1039.053206300508	746.428959087404	296.607317723608	965.494140927508	617.292727860440	245.546530925300	1055.493974678811	551.521234544033	315.771545740508	1061.293491593836	478.046288633992	328.215305199482	1023.852204071959	402.066956886361	325.470379709011	924.087223716291	295.902049526566	274.756881200235	954.621548187644	184.161189785061	353.872700664536	1033.398998343360	404.119518396284	529.712582289158	911.092647473359	371.468020421734	592.875167211549	894.470715130768	259.709144353334	550.723709854504	690.862857641056	200.927331888738	524.840718929881	858.548283449333	143.856854677128	574.855224820741	748.492506844102	149.451203657738	605.164290812979	920.318406938649	33.712260846047	613.071515539278	809.100803796822	38.776560623569	395.912374558512	884.860274683171	35.614136300193	316.631889445455	968.405516310370	95.328297090895	346.439521605306	1096.579279446346	44.034268808179	319.628195400953	989.081171516021	1069.440331594548	100.247500659052	1129.746392069341	850.703851113878	119.861864759300	970.324785750428	1074.926789533638	678.035615375691	1134.957101438507	876.293386169790	674.298467403868	
58	48.161857142857	754.316378574630	984.876537207240	412.936590168867	924.232095236956	1415.054104799282	221.121555317051	1026.134476642349	1351.591973480479	384.380438949290	942.986005092364	1425.165130170516	557.495398698804	909.646095937708	1482.261923979713	377.416100923841	987.903087581643	931.890192262224	528.438302048910	972.411620749319	947.740010669538	254.189118989994	1066.233893876546	751.689587214028	497.819168979520	1021.332707645729	633.660856643881	572.705441499457	1104.340507167199	589.056799205647	488.228350171527	1118.550466776194	477.235323902990	514.217735258989	1039.457889873875	745.032286905862	296.397189933369	965.786102094776	615.991667409694	245.147856525356	1054.998306805150	550.083110010143	316.335869069400	1060.493944375706	476.484974407333	329.031025362393	1022.144026542455	400.526995367765	326.154955664767	921.565392070379	295.344847768743	274.995591256939	950.114569026827	183.321107393173	354.264879058439	1041.130429246201	405.618496152051	528.858228592050	920.468134668784	369.084091746646	592.713864048565	907.378702839995	256.863123644198	550.714675004082	705.876447258019	189.613606983043	526.453115048851	876.132226129014	140.795245083862	574.798983399486	766.487470443296	140.939274371324	606.197455954336	943.372126960470	34.022369492689	612.294350529379	803.145987055247	38.843483092829	395.868724756235	878.962964534089	35.663576630145	316.636239538714	962.614472696866	95.185892298504	346.615695365000	1090.750440012833	43.590614272162	319.639669738972	1000.464764889188	1072.364931837148	98.530401051873	1152.220953350984	861.031823223754	119.564411594047	951.935638784583	1071.937684045394	677.778709513967	1097.977486200683	858.708352230687	678.390625682667	
